<svg width="281" height="281" viewBox="0 0 281 281" fill="none" xmlns="http://www.w3.org/2000/svg">
<g filter="url(#filter0_d_67_4742)">
<circle cx="139.5" cy="139.5" r="125.5" fill="#303030"/>
<circle cx="139.5" cy="139.5" r="124.5" stroke="#FBB034" stroke-width="2"/>
</g>
<path d="M84.915 69.2364C86.7975 57.3139 90.5625 51.6664 90.5625 51.6664C90.5625 51.6664 97.465 34.0964 104.367 34.0964C111.27 34.0964 116.918 49.7839 117.545 52.2939C133.86 49.7839 132.605 52.2939 142.017 51.6664C144.528 45.3914 150.403 34.0964 155.195 34.0964C162.725 33.4689 168.373 51.0389 173.393 57.3139C183.433 61.7064 189.969 63.2527 199.747 70.4914C211.315 79.0539 224.847 97.4739 224.847 97.4739C224.847 97.4739 235.515 112.534 236.77 127.594C238.29 145.83 238.228 157.543 231.75 174.656C224.65 193.413 217.225 203.977 202.258 217.326C189.712 228.516 180.609 233.508 164.607 238.661C144.076 245.274 119.428 246.191 104.995 236.779C100.474 233.83 98.72 221.091 112.525 217.954C123.447 215.472 130.239 223.181 141.39 224.229C154.077 225.421 162.725 226.739 174.02 223.601C188.394 219.609 195.983 206.659 198.493 195.991C200.246 188.539 199.748 182.814 186.57 181.559C172.765 180.244 169.24 175.236 167.745 168.381C160.215 133.869 145.155 135.124 132.605 130.731C117.081 125.298 106.274 125.108 94.3274 113.161C82.405 101.239 83.0325 81.1589 84.915 69.2364Z" fill="#FBB034"/>
<path d="M106.878 131.359C107.54 134.672 104.368 133.241 94.955 141.399C89.1401 146.438 87.425 148.929 83.0325 157.086C80.3293 162.106 78.0212 169.941 78.0125 173.401C77.9978 179.226 78.3297 183.139 81.7775 187.834C85.6095 193.052 89.7376 196.146 96.21 195.991C108.76 195.691 111.897 181.559 111.897 181.559C111.897 181.559 113.603 175.095 114.408 170.891C115.43 165.547 115.11 162.398 116.29 157.086C116.848 154.576 119.128 147.588 123.192 143.281C126.746 139.516 132.396 135.751 133.232 137.006C134.488 138.889 129.952 141.3 126.958 145.791C121.938 153.321 122.198 155.794 121.938 160.224C121.31 170.891 121.31 174.656 118.172 184.696C114.896 195.18 107.193 202.179 96.21 202.266C87.5463 202.336 81.8976 198.573 76.7575 191.599C72.3838 185.664 71.8599 180.772 71.7375 173.401C71.6071 165.557 73.1807 160.932 76.7575 153.949C80.4051 146.828 84.2775 143.919 89.935 138.261C93.7 134.496 106.25 128.221 106.878 131.359Z" fill="#FBB034"/>
<path d="M136.997 169.009C138.062 167.589 141.39 170.891 146.41 170.891C148.92 170.891 153.313 167.126 154.568 168.381C155.823 169.636 153.138 173.636 150.802 175.284C147.792 177.408 143.272 176.539 141.39 175.911C139.384 175.243 135.115 171.519 136.997 169.009Z" fill="#FBB034"/>
<path d="M139.976 85.18C141.041 83.7601 144.368 87.0625 149.388 87.0625C151.898 87.0625 156.291 83.2975 157.546 84.5525C158.801 85.8075 156.116 89.8075 153.781 91.455C150.771 93.5788 146.251 92.71 144.368 92.0825C142.362 91.4137 138.093 87.69 139.976 85.18Z" fill="black"/>
<path d="M98.5608 85.18C99.6256 83.7601 102.953 87.0625 107.973 87.0625C110.483 87.0625 114.876 83.2975 116.131 84.5525C117.386 85.8075 114.701 89.8075 112.366 91.455C109.356 93.5788 104.836 92.71 102.953 92.0825C100.947 91.4137 96.6783 87.69 98.5608 85.18Z" fill="black"/>
<path d="M122.194 94.8579C122.776 94.0199 124.84 93.0814 127.585 93.0814C128.958 93.0814 131 93.3837 131.803 94.4876C132.605 95.5914 131.021 97.5889 129.743 98.5612C128.097 99.8146 125.625 99.3019 124.596 98.9315C123.499 98.5368 121.164 96.3392 122.194 94.8579Z" fill="black"/>
<defs>
<filter id="filter0_d_67_4742" x="0" y="0" width="281" height="281" filterUnits="userSpaceOnUse" color-interpolation-filters="sRGB">
<feFlood flood-opacity="0" result="BackgroundImageFix"/>
<feColorMatrix in="SourceAlpha" type="matrix" values="0 0 0 0 0 0 0 0 0 0 0 0 0 0 0 0 0 0 127 0" result="hardAlpha"/>
<feMorphology radius="5" operator="dilate" in="SourceAlpha" result="effect1_dropShadow_67_4742"/>
<feOffset dx="1" dy="1"/>
<feGaussianBlur stdDeviation="5"/>
<feComposite in2="hardAlpha" operator="out"/>
<feColorMatrix type="matrix" values="0 0 0 0 0.984314 0 0 0 0 0.690196 0 0 0 0 0.203922 0 0 0 0.11 0"/>
<feBlend mode="normal" in2="BackgroundImageFix" result="effect1_dropShadow_67_4742"/>
<feBlend mode="normal" in="SourceGraphic" in2="effect1_dropShadow_67_4742" result="shape"/>
</filter>
</defs>
</svg>
