<svg width="200" height="200" viewBox="0 0 200 200" fill="none" xmlns="http://www.w3.org/2000/svg">
<circle cx="100" cy="100" r="100" fill="#303030"/>
<path d="M56.506 44.0131C58.0059 34.5131 61.006 30.0131 61.006 30.0131C61.006 30.0131 66.506 16.0131 72.006 16.0131C77.506 16.0131 82.006 28.5131 82.506 30.5131C95.506 28.5131 94.506 30.5131 102.006 30.0131C104.006 25.0131 108.688 16.0131 112.506 16.0131C118.506 15.513 123.006 29.5131 127.006 34.5131C135.006 38.0131 140.214 39.2452 148.006 45.0131C157.223 51.8357 168.006 66.5131 168.006 66.5131C168.006 66.5131 176.506 78.5131 177.506 90.5131C178.717 105.043 178.668 114.377 173.506 128.013C167.848 142.959 161.932 151.376 150.006 162.013C140.009 170.929 132.756 174.907 120.006 179.013C103.646 184.282 84.006 185.013 72.506 177.513C68.9033 175.163 67.506 165.013 78.506 162.513C87.2086 160.535 92.6205 166.678 101.506 167.513C111.615 168.463 118.506 169.513 127.506 167.013C138.959 163.832 145.006 153.513 147.006 145.013C148.403 139.075 148.006 134.513 137.506 133.513C126.506 132.465 123.698 128.475 122.506 123.013C116.506 95.5131 104.506 96.5131 94.506 93.0131C82.1359 88.6835 73.5248 88.532 64.0059 79.0131C54.506 69.5131 55.006 53.5131 56.506 44.0131Z" fill="#FBB034"/>
<path d="M74.006 93.5131C74.534 96.1534 72.006 95.0131 64.506 101.513C59.8726 105.529 58.506 107.513 55.0059 114.013C52.8521 118.013 51.0129 124.256 51.0059 127.013C50.9942 131.654 51.2588 134.772 54.0059 138.513C57.0594 142.671 60.3487 145.136 65.5059 145.013C75.506 144.774 78.0059 133.513 78.0059 133.513C78.0059 133.513 79.3652 128.362 80.006 125.013C80.8206 120.755 80.5655 118.245 81.506 114.013C81.9504 112.013 83.7671 106.445 87.0059 103.013C89.8374 100.013 94.3393 97.0131 95.0059 98.013C96.006 99.5131 92.3918 101.434 90.006 105.013C86.006 111.013 86.2136 112.984 86.006 116.513C85.506 125.013 85.506 128.013 83.0059 136.013C80.3954 144.367 74.2577 149.943 65.5059 150.013C58.6026 150.068 54.1017 147.07 50.0059 141.513C46.5209 136.784 46.1035 132.886 46.0059 127.013C45.9021 120.762 47.1559 117.077 50.0059 111.513C52.9124 105.839 55.998 103.521 60.506 99.0131C63.506 96.0131 73.506 91.0131 74.006 93.5131Z" fill="#FBB034"/>
<path d="M98.0059 123.513C98.8544 122.382 101.506 125.013 105.506 125.013C107.506 125.013 111.006 122.013 112.006 123.013C113.006 124.013 110.867 127.2 109.006 128.513C106.607 130.205 103.006 129.513 101.506 129.013C99.9072 128.48 96.506 125.513 98.0059 123.513Z" fill="#FBB034"/>
<path d="M100.379 56.7171C101.228 55.5857 103.879 58.2171 107.879 58.2171C109.879 58.2171 113.379 55.2171 114.379 56.2171C115.379 57.2172 113.24 60.4044 111.379 61.7171C108.981 63.4094 105.379 62.7171 103.879 62.2171C102.28 61.6842 98.8792 58.7171 100.379 56.7171Z" fill="black"/>
<path d="M67.3791 56.7171C68.2276 55.5857 70.8791 58.2171 74.8791 58.2171C76.8791 58.2171 80.3792 55.2171 81.3792 56.2171C82.3792 57.2172 80.2397 60.4044 78.3791 61.7171C75.9806 63.4094 72.3791 62.7171 70.8791 62.2171C69.2804 61.6842 65.8792 58.7171 67.3791 56.7171Z" fill="black"/>
<path d="M86.21 64.4286C86.6741 63.7609 88.3184 63.0131 90.506 63.0131C91.5998 63.0131 93.2272 63.254 93.8666 64.1335C94.506 65.0131 93.2434 66.6047 92.2259 67.3794C90.9141 68.3781 88.9445 67.9696 88.1242 67.6745C87.2498 67.36 85.3897 65.6089 86.21 64.4286Z" fill="black"/>
</svg>
